# xmcd
#
# Track frame offsets: 
#        150
#        18075
#        33420
#        44890
#
# Disc length: 844 seconds
#
# Revision: 0
# Processed by: cddbd v1.5.2PL0 Copyright (c) Steve Scherf et al.
# Submitted via: ExactAudioCopyFreeDBPlugin 1.0
#
DISCID=2c034a04
DTITLE=Lars Bygdén - This Road (with Ane Brun)
DYEAR=2005
DGENRE=Country
TTITLE0=This Road (with Ane Brun)
TTITLE1=Every Single Word
TTITLE2=I Want You
TTITLE3=Dream On (acoustic version)
EXTD=
EXTT0=
EXTT1=
EXTT2=
EXTT3=
PLAYORDER=
